<svg width="65" height="65" viewBox="0 0 65 65" fill="none" xmlns="http://www.w3.org/2000/svg">
<path d="M25.7833 56.8711C23.1599 56.8711 20.9156 55.9638 19.0504 54.1492C17.1853 52.3346 16.2518 50.1517 16.25 47.6005C16.25 46.2987 16.556 45.0862 17.1681 43.9632C17.7784 42.8383 18.757 41.6891 20.104 40.5155C20.9309 39.8294 21.6423 39.1053 22.2381 38.3434C22.834 37.5814 23.4731 36.8303 24.1556 36.09C22.1316 32.9845 20.5942 29.7634 19.5433 26.4267C18.4925 23.0864 17.9671 19.7796 17.9671 16.5061C17.9671 14.5128 18.2153 13.034 18.7119 12.0698C19.2084 11.1039 19.9505 10.6209 20.9381 10.6209C22.4331 10.6209 23.9976 11.5589 25.6317 13.4348C27.2621 15.309 28.6487 17.4919 29.7917 19.9836C30.5446 21.6501 31.1431 23.3889 31.5873 25.1998C32.0297 27.0108 32.3339 28.8119 32.5 30.603C32.6661 28.8119 32.9794 27.0108 33.4398 25.1998C33.9002 23.3889 34.4951 21.6501 35.2246 19.9836C36.3206 17.4919 37.6937 15.3072 39.344 13.4294C40.9942 11.5516 42.5669 10.6146 44.0619 10.6182C45.0495 10.6182 45.7916 11.1012 46.2881 12.0671C46.7828 13.0313 47.0302 14.51 47.0302 16.5034C47.0302 19.7787 46.5057 23.0855 45.4567 26.424C44.4058 29.7625 42.8684 32.9836 40.8444 36.0873C41.5269 36.8276 42.166 37.5787 42.7619 38.3407C43.3577 39.1026 44.0691 39.8275 44.896 40.5155C46.243 41.6891 47.2216 42.8374 47.8319 43.9605C48.4422 45.0835 48.7482 46.2969 48.75 47.6005C48.75 50.1535 47.8165 52.3364 45.9496 54.1492C44.0844 55.9638 41.841 56.8711 39.2194 56.8711C37.5348 56.8711 35.9937 56.593 34.5963 56.0369L32.5 55.2055L30.4037 56.0369C29.0062 56.593 27.4652 56.8711 25.7806 56.8711M25.9892 54.1628C26.9226 54.1628 27.9085 54.03 28.9467 53.7646C29.9849 53.4992 30.9553 53.1182 31.8581 52.6217C31.432 52.396 31.042 52.0557 30.6881 51.6007C30.3324 51.1457 30.1546 50.7503 30.1546 50.4144C30.1546 50.0533 30.3803 49.7626 30.8317 49.5423C31.2812 49.3239 31.8374 49.2146 32.5 49.2146C33.1283 49.2146 33.6592 49.332 34.0925 49.5667C34.5258 49.8014 34.7416 50.084 34.7398 50.4144C34.7398 50.7503 34.5628 51.1457 34.209 51.6007C33.8551 52.0557 33.4642 52.396 33.0362 52.6217C33.939 53.1182 34.9095 53.4992 35.9477 53.7646C36.9859 54.03 37.9726 54.1628 38.9079 54.1628C40.8724 54.1628 42.5353 53.5254 43.8967 52.2507C45.2563 50.976 45.936 49.4259 45.936 47.6005C45.936 46.6489 45.6851 45.7723 45.1831 44.9707C44.6776 44.1672 43.9048 43.3303 42.8648 42.46C42.3015 41.987 41.869 41.5825 41.5675 41.2467C41.266 40.9091 40.8895 40.4541 40.4381 39.8817C38.8853 37.8505 37.6287 36.5631 36.6681 36.0196C35.7076 35.4762 34.3001 35.2044 32.4458 35.2044C30.5915 35.2044 29.1832 35.4762 28.2208 36.0196C27.2513 36.5631 25.9964 37.8505 24.4562 39.8817C24.0049 40.4541 23.6275 40.9091 23.3242 41.2467C23.0208 41.5844 22.5893 41.9888 22.0296 42.46C20.9878 43.3321 20.215 44.169 19.7112 44.9707C19.2075 45.7723 18.9565 46.6489 18.9583 47.6005C18.9583 49.4277 19.639 50.9778 21.0004 52.2507C22.3618 53.5236 24.0247 54.161 25.9892 54.1628ZM28.4375 45.3607C28.0764 45.3607 27.7604 45.1575 27.4896 44.7513C27.2187 44.345 27.0833 43.8711 27.0833 43.3294C27.0833 42.7878 27.2187 42.3138 27.4896 41.9075C27.7604 41.5013 28.0764 41.2982 28.4375 41.2982C28.7986 41.2982 29.1146 41.5013 29.3854 41.9075C29.6563 42.3138 29.7917 42.7878 29.7917 43.3294C29.7917 43.8711 29.6563 44.345 29.3854 44.7513C29.1146 45.1575 28.7986 45.3607 28.4375 45.3607ZM36.5625 45.3607C36.2014 45.3607 35.8854 45.1575 35.6146 44.7513C35.3437 44.345 35.2083 43.8711 35.2083 43.3294C35.2083 42.7878 35.3437 42.3138 35.6146 41.9075C35.8854 41.5013 36.2014 41.2982 36.5625 41.2982C36.9236 41.2982 37.2396 41.5013 37.5104 41.9075C37.7812 42.3138 37.9167 42.7878 37.9167 43.3294C37.9167 43.8711 37.7812 44.345 37.5104 44.7513C37.2396 45.1575 36.9236 45.3607 36.5625 45.3607ZM26.1408 34.1265C26.7078 33.6968 27.3153 33.3628 27.9635 33.1244C28.6117 32.8861 29.3204 32.7254 30.0896 32.6423C29.9993 30.6833 29.7068 28.7017 29.2121 26.6975C28.7174 24.6916 28.0583 22.7741 27.235 20.945C26.3431 18.93 25.3428 17.259 24.2342 15.9319C23.1274 14.603 22.0549 13.758 21.0167 13.3969C20.9264 13.7382 20.8469 14.1489 20.7783 14.6292C20.7097 15.1095 20.6754 15.6837 20.6754 16.3517C20.6754 19.246 21.1521 22.2387 22.1054 25.3298C23.0587 28.421 24.4039 31.3532 26.1408 34.1265ZM38.8592 34.1265C40.5943 31.3532 41.9394 28.421 42.8946 25.3298C43.8461 22.2387 44.3219 19.246 44.3219 16.3517C44.3219 15.6837 44.2885 15.1095 44.2217 14.6292C44.1531 14.1489 44.0736 13.7382 43.9833 13.3969C42.9451 13.758 41.8726 14.603 40.7658 15.9319C39.6572 17.259 38.6569 18.9291 37.765 20.9423C36.9525 22.7732 36.2989 24.6916 35.8042 26.6975C35.3094 28.7035 35.0115 30.6851 34.9104 32.6423C35.6579 32.7182 36.3558 32.8771 37.004 33.119C37.6522 33.361 38.2706 33.6968 38.8592 34.1265Z" fill="white"/>
</svg>
