<svg width="65" height="65" viewBox="0 0 65 65" fill="none" xmlns="http://www.w3.org/2000/svg">
<path d="M59.8535 58.2256L6.49935 4.60059L2.97852 8.12142L18.6868 23.8298L18.416 24.3714C17.3327 23.0173 15.7077 21.9339 14.0827 21.3923C11.3743 20.5798 6.22852 20.8506 5.41602 23.0173C4.60352 25.1839 8.93685 28.4339 11.6452 28.9756C12.9993 29.2464 14.8952 29.2464 16.2493 28.9756V32.4964C16.2493 36.0173 17.6035 39.5381 19.4993 42.2464C17.6035 44.1423 16.2493 46.3089 16.2493 48.7464C16.2493 54.7048 23.5618 59.5798 32.4993 59.5798C39.2702 59.5798 45.2285 56.8714 47.666 52.8089L56.6035 61.7464L59.8535 58.2256ZM25.4577 30.3298C24.6452 30.8714 24.3743 31.6839 24.3743 32.4964C24.3743 34.1214 25.4577 35.2048 27.0827 35.2048C27.8952 35.2048 28.7077 34.9339 29.2493 34.1214L33.041 37.9131H32.7702C29.791 37.9131 26.8118 38.4548 24.3743 39.5381C22.4785 37.6423 21.666 35.2048 21.666 32.4964C21.666 30.8714 21.9368 29.2464 22.7493 27.8923L25.4577 30.3298ZM43.3327 48.7464C43.3327 51.7256 38.4577 54.1631 32.4993 54.1631C26.541 54.1631 21.666 51.7256 21.666 48.7464C21.666 45.7673 26.541 43.3298 32.4993 43.3298C35.2077 43.3298 37.6452 43.8714 39.541 44.6839L43.3327 48.4756V48.7464ZM26.2702 17.6006L21.1243 12.4548C22.4785 10.5589 24.3743 8.93392 27.0827 8.12142L26.8118 8.39225C25.9993 9.74642 24.1035 13.5381 26.2702 17.6006ZM30.6035 21.9339L26.2702 17.6006C28.166 16.7881 30.3327 16.2464 32.4993 16.2464C34.666 16.2464 36.8327 16.7881 38.7285 17.6006C40.8952 13.5381 38.7285 9.74642 38.1868 8.66309L37.916 8.12142C46.041 10.8298 46.5827 18.9548 44.9577 22.2048L46.5827 24.3714C47.666 23.0173 49.291 21.9339 50.916 21.3923C53.6243 20.5798 58.7702 20.8506 59.5827 23.0173C60.3952 25.1839 56.0618 28.4339 53.3535 28.9756C51.9993 29.2464 50.1035 29.2464 48.7493 28.9756V32.4964C48.7493 34.6631 48.2077 36.8298 47.3952 38.7256L43.0618 34.3923C43.0618 33.8506 43.3327 33.0381 43.3327 32.4964C43.3327 26.5381 38.4577 21.6631 32.4993 21.6631C31.9577 21.6631 31.1452 21.6631 30.6035 21.9339ZM37.916 50.1006C37.916 50.9131 37.3743 51.4548 36.5618 51.4548C35.7493 51.4548 35.2077 50.9131 35.2077 50.1006C35.2077 49.2881 35.7493 48.7464 36.5618 48.7464C37.3743 48.7464 37.916 49.2881 37.916 50.1006ZM29.791 50.1006C29.791 50.9131 29.2493 51.4548 28.4368 51.4548C27.6243 51.4548 27.0827 50.9131 27.0827 50.1006C27.0827 49.2881 27.6243 48.7464 28.4368 48.7464C29.2493 48.7464 29.791 49.2881 29.791 50.1006Z" fill="white"/>
</svg>
