<svg width="65" height="65" viewBox="0 0 65 65" fill="none" xmlns="http://www.w3.org/2000/svg">
<path fill-rule="evenodd" clip-rule="evenodd" d="M59.5827 32.4964C59.5827 47.4545 47.4575 59.5798 32.4994 59.5798C17.5412 59.5798 5.41602 47.4545 5.41602 32.4964C5.41602 17.5383 17.5412 5.41309 32.4994 5.41309C47.4575 5.41309 59.5827 17.5383 59.5827 32.4964ZM48.7507 50.6639C44.2862 54.6693 38.4972 56.8806 32.4994 56.8714C19.0376 56.8714 8.12435 45.9582 8.12435 32.4964C8.12435 26.0804 10.6025 20.2439 14.6555 15.8903L20.0315 21.2663C20.2869 21.513 20.629 21.6495 20.9841 21.6464C21.3391 21.6433 21.6788 21.5009 21.9298 21.2498C22.1809 20.9987 22.3233 20.6591 22.3264 20.304C22.3295 19.949 22.193 19.6069 21.9463 19.3515L16.6082 14.0134C21.0256 10.2044 26.6665 8.1129 32.4994 8.12142C45.9611 8.12142 56.8744 19.0346 56.8744 32.4964C56.8744 38.7391 54.5262 44.4361 50.6669 48.7478L39.0955 37.1778C39.9957 36.4504 40.7219 35.5309 41.2207 34.4866C41.7196 33.4423 41.9785 32.2996 41.9785 31.1423L39.0508 31.6027C38.0061 31.7665 37.0061 32.1425 36.1122 32.7075C35.2184 33.2725 34.4497 34.0145 33.8535 34.8879V30.9297L35.4271 30.6818C37.2531 30.3941 38.9163 29.4639 40.1174 28.0587C41.3185 26.6536 41.9785 24.8658 41.9785 23.0173L39.0508 23.4777C38.0061 23.6415 37.0061 24.0175 36.1122 24.5825C35.2184 25.1475 34.4497 25.8895 33.8535 26.7629V24.3714L34.4832 23.7417C35.7525 22.472 36.4656 20.7501 36.4656 18.9548C36.4656 17.1594 35.7525 15.4375 34.4832 14.1678L32.4994 12.1839L30.5168 14.1664C29.2471 15.4362 28.5338 17.1584 28.5338 18.9541C28.5338 20.7498 29.2471 22.472 30.5168 23.7417L31.1452 24.3714V26.7629C30.549 25.8895 29.7803 25.1475 28.8865 24.5825C27.9926 24.0175 26.9926 23.6415 25.9479 23.4777L23.0202 23.0173C23.0202 24.8658 23.6802 26.6536 24.8813 28.0587C26.0824 29.4639 27.7456 30.3941 29.5716 30.6818L31.1452 30.9297V34.8879C30.549 34.0145 29.7803 33.2725 28.8865 32.7075C27.9926 32.1425 26.9926 31.7665 25.9479 31.6027L23.0202 31.1423C23.0202 32.9908 23.6802 34.7786 24.8813 36.1837C26.0824 37.5889 27.7456 38.5191 29.5716 38.8068L31.1452 39.0546V43.0129C30.549 42.1395 29.7803 41.3975 28.8865 40.8325C27.9926 40.2675 26.9926 39.8915 25.9479 39.7277L23.0202 39.2673C23.0202 41.1158 23.6802 42.9036 24.8813 44.3087C26.0824 45.7139 27.7456 46.6441 29.5716 46.9318L31.1452 47.1796V51.4548H33.8535V46.6515C34.3309 46.9212 34.8859 47.0201 35.4271 46.9318C36.6064 46.7463 37.7271 46.2912 38.7018 45.6018C39.6765 44.9125 40.479 44.0075 41.0469 42.9574L48.7507 50.6639ZM38.0433 39.9565L36.612 38.5238C36.2246 38.6477 35.8286 38.7423 35.4271 38.8068L33.8535 39.0546V43.0129C34.8582 41.5437 36.3375 40.4646 38.0433 39.9565Z" fill="white"/>
</svg>
