<svg width="65" height="65" viewBox="0 0 65 65" fill="none" xmlns="http://www.w3.org/2000/svg">
<path d="M32.4994 5.41309C17.6035 5.41309 5.41602 17.6006 5.41602 32.4964C5.41602 47.3923 17.6035 59.5798 32.4994 59.5798C47.3952 59.5798 59.5827 47.3923 59.5827 32.4964C59.5827 17.6006 47.3952 5.41309 32.4994 5.41309ZM25.9994 46.5798C25.4035 46.5798 24.591 46.3631 23.8327 46.0381L22.2889 49.8298L19.2014 48.7464L19.6348 47.6902C22.8848 39.511 26.6223 30.1943 40.6244 27.0798C40.6244 27.0798 24.3744 27.0798 19.0931 42.111C19.0931 42.111 16.2493 39.2673 16.2493 36.0173C16.2493 32.7673 19.4993 25.861 27.6243 24.236C29.9264 23.7756 32.4993 23.4235 35.0452 23.0173C41.4369 22.1506 47.5848 21.2839 48.7494 18.9548C48.7494 18.9548 43.8744 46.5798 25.9994 46.5798Z" fill="white"/>
</svg>
