<svg width="1512" height="411" viewBox="0 0 1512 411" fill="none" xmlns="http://www.w3.org/2000/svg">
<path d="M-375.5 106.513C-482.162 98.8451 -631 205.013 -631 205.013V400.513C-631 406.035 -626.523 410.513 -621 410.513H1605.5C1611.02 410.513 1615.5 406.035 1615.5 400.513V137.013C1615.5 137.013 1579.46 98.1816 1549.5 84.5126C1457.66 42.6182 1412.56 177.721 1312 186.513C1160.54 199.755 1105.59 45.2074 954 33.5126C758.829 18.4556 676.214 236.423 483 205.013C332.532 180.551 302.494 -11.1721 150.5 0.512565C4.92035 11.7041 4.46985 237.403 -141.5 234.013C-245.539 231.596 -271.7 113.974 -375.5 106.513Z" fill="#E8274A"/>
</svg>
