<svg width="37" height="37" viewBox="0 0 37 37" fill="none" xmlns="http://www.w3.org/2000/svg">
<path d="M27.75 18.5C27.75 20.9533 26.7754 23.306 25.0407 25.0407C23.306 26.7754 20.9533 27.75 18.5 27.75C16.0467 27.75 13.694 26.7754 11.9593 25.0407C10.2246 23.306 9.25 20.9533 9.25 18.5C9.25 16.0467 10.2246 13.694 11.9593 11.9593C13.694 10.2246 16.0467 9.25 18.5 9.25C20.9533 9.25 23.306 10.2246 25.0407 11.9593C26.7754 13.694 27.75 16.0467 27.75 18.5Z" fill="#E8274A"/>
<path fill-rule="evenodd" clip-rule="evenodd" d="M18.4997 1.92706C18.8063 1.92706 19.1004 2.04888 19.3173 2.26572C19.5341 2.48256 19.6559 2.77666 19.6559 3.08331V4.62498C19.6559 4.93164 19.5341 5.22573 19.3173 5.44257C19.1004 5.65941 18.8063 5.78123 18.4997 5.78123C18.193 5.78123 17.8989 5.65941 17.6821 5.44257C17.4652 5.22573 17.3434 4.93164 17.3434 4.62498V3.08331C17.3434 2.77666 17.4652 2.48256 17.6821 2.26572C17.8989 2.04888 18.193 1.92706 18.4997 1.92706ZM6.78147 6.78177C6.99826 6.56524 7.29214 6.44362 7.59855 6.44362C7.90496 6.44362 8.19884 6.56524 8.41563 6.78177L9.02151 7.3861C9.23223 7.60408 9.34892 7.89609 9.34643 8.19926C9.34394 8.50243 9.22247 8.79249 9.00819 9.00697C8.79391 9.22145 8.50397 9.34319 8.2008 9.34596C7.89764 9.34874 7.60551 9.23233 7.38734 9.02181L6.78147 8.41594C6.56494 8.19914 6.44332 7.90526 6.44332 7.59885C6.44332 7.29245 6.56494 6.99857 6.78147 6.78177ZM30.2179 6.78177C30.4344 6.99857 30.556 7.29245 30.556 7.59885C30.556 7.90526 30.4344 8.19914 30.2179 8.41594L29.612 9.02181C29.3928 9.22605 29.1029 9.33724 28.8034 9.33196C28.5038 9.32667 28.218 9.20533 28.0062 8.99348C27.7943 8.78163 27.673 8.49583 27.6677 8.19629C27.6624 7.89674 27.7736 7.60683 27.9778 7.38765L28.5837 6.78177C28.8005 6.56524 29.0944 6.44362 29.4008 6.44362C29.7072 6.44362 30.0011 6.56524 30.2179 6.78177ZM1.92676 18.5C1.92676 18.1933 2.04858 17.8992 2.26542 17.6824C2.48225 17.4655 2.77635 17.3437 3.08301 17.3437H4.62467C4.93133 17.3437 5.22543 17.4655 5.44227 17.6824C5.65911 17.8992 5.78092 18.1933 5.78092 18.5C5.78092 18.8066 5.65911 19.1007 5.44227 19.3176C5.22543 19.5344 4.93133 19.6562 4.62467 19.6562H3.08301C2.77635 19.6562 2.48225 19.5344 2.26542 19.3176C2.04858 19.1007 1.92676 18.8066 1.92676 18.5ZM31.2184 18.5C31.2184 18.1933 31.3402 17.8992 31.5571 17.6824C31.7739 17.4655 32.068 17.3437 32.3747 17.3437H33.9163C34.223 17.3437 34.5171 17.4655 34.7339 17.6824C34.9508 17.8992 35.0726 18.1933 35.0726 18.5C35.0726 18.8066 34.9508 19.1007 34.7339 19.3176C34.5171 19.5344 34.223 19.6562 33.9163 19.6562H32.3747C32.068 19.6562 31.7739 19.5344 31.5571 19.3176C31.3402 19.1007 31.2184 18.8066 31.2184 18.5ZM27.9778 27.9781C28.1946 27.7616 28.4885 27.64 28.7949 27.64C29.1013 27.64 29.3952 27.7616 29.612 27.9781L30.2179 28.584C30.3315 28.6899 30.4226 28.8175 30.4858 28.9594C30.549 29.1012 30.583 29.2543 30.5857 29.4095C30.5885 29.5648 30.5599 29.719 30.5017 29.863C30.4436 30.007 30.357 30.1377 30.2472 30.2475C30.1374 30.3573 30.0067 30.4439 29.8627 30.502C29.7187 30.5602 29.5645 30.5888 29.4092 30.586C29.254 30.5833 29.1009 30.5493 28.9591 30.4861C28.8172 30.4229 28.6896 30.3318 28.5837 30.2182L27.9778 29.6123C27.7613 29.3955 27.6397 29.1016 27.6397 28.7952C27.6397 28.4888 27.7613 28.1949 27.9778 27.9781ZM9.02151 27.9781C9.23804 28.1949 9.35966 28.4888 9.35966 28.7952C9.35966 29.1016 9.23804 29.3955 9.02151 29.6123L8.41563 30.2182C8.30978 30.3318 8.18213 30.4229 8.0403 30.4861C7.89846 30.5493 7.74536 30.5833 7.5901 30.586C7.43485 30.5888 7.28064 30.5602 7.13667 30.502C6.9927 30.4439 6.86191 30.3573 6.75211 30.2475C6.64232 30.1377 6.55576 30.007 6.49761 29.863C6.43946 29.719 6.4109 29.5648 6.41364 29.4095C6.41638 29.2543 6.45036 29.1012 6.51355 28.9594C6.57675 28.8175 6.66787 28.6899 6.78147 28.584L7.3858 27.9781C7.49318 27.8707 7.62067 27.7855 7.761 27.7273C7.90134 27.6692 8.05175 27.6392 8.20365 27.6392C8.35556 27.6392 8.50597 27.6692 8.6463 27.7273C8.78663 27.7855 8.91413 27.8707 9.02151 27.9781ZM18.4997 31.2187C18.8063 31.2187 19.1004 31.3405 19.3173 31.5574C19.5341 31.7742 19.6559 32.0683 19.6559 32.375V33.9166C19.6559 34.2233 19.5341 34.5174 19.3173 34.7342C19.1004 34.9511 18.8063 35.0729 18.4997 35.0729C18.193 35.0729 17.8989 34.9511 17.6821 34.7342C17.4652 34.5174 17.3434 34.2233 17.3434 33.9166V32.375C17.3434 32.0683 17.4652 31.7742 17.6821 31.5574C17.8989 31.3405 18.193 31.2187 18.4997 31.2187Z" fill="#E8274A"/>
</svg>
