<svg width="1512" height="329" viewBox="0 0 1512 329" fill="none" xmlns="http://www.w3.org/2000/svg">
<path d="M0 3.89824C0 3.89824 152.03 -4.8728 251 3.89824C366.159 14.104 403.55 84.3941 514.5 51.8982C582.573 31.9604 600.511 11.8192 671 3.89819C824.5 -13.351 897.247 70.6654 1051.5 51.8982C1154.47 39.3699 1197.87 8.50762 1301.5 3.89821C1385.82 0.147697 1512 26.649 1512 26.649V308.649C1512 308.649 1397.21 269.013 1313 267.149C1212.69 264.929 1187.38 311.072 1088 324.898C958.621 342.898 873.617 278.732 743 280.149C635.338 281.317 609.13 327.777 501.5 324.898C391.69 321.961 339.261 292.75 229.5 297.149C131.306 301.085 0 324.898 0 324.898V3.89824Z" fill="#4C1E0F"/>
</svg>
